<svg width="463" height="87" viewBox="0 0 463 87" fill="none" xmlns="http://www.w3.org/2000/svg">
<g clip-path="url(#clip0)">
<path d="M386.2 0.300002C382.2 -0.999998 378.2 2 378.2 6.1C378.2 8.8 379.9 11.1 382.4 12.1C384 12.8 385.5 13.8 386.8 15.2C389.4 17.9 390.7 21.5 390.7 25.7C390.7 29.9 389.4 33.4 386.8 36.1C384.2 38.8 381.1 40.2 377.1 40.2C373.2 40.2 370 38.8 367.4 36.1C364.8 33.4 363.6 29.8 363.6 25.7C363.6 21.5 364.9 18 367.4 15.2C368.7 13.8 370.2 12.8 371.8 12.1C374.3 11 376.1 8.7 376.1 6C376.1 1.9 372.1 -1.1 368.1 0.200002C364.2 1.5 360.7 3.6 357.7 6.7C352.6 11.9 350 18.3 350 25.7C350 33.1 352.6 39.5 357.7 44.7C362.9 49.9 369.3 52.5 377.1 52.5C384.9 52.5 391.4 49.9 396.5 44.7C401.6 39.5 404.2 33.1 404.2 25.7C404.2 18.3 401.6 11.9 396.5 6.7C393.6 3.7 390.1 1.6 386.2 0.300002ZM308.4 0.200002C304.7 0.200002 301.6 3.2 301.6 7V46C301.6 47.9 302.4 49.5 303.6 50.8C304.8 52 306.5 52.8 308.4 52.8C310.3 52.8 312 52 313.2 50.8C313.5 50.5 313.8 50.2 314 49.8C314.2 49.4 314.5 49.1 314.6 48.7C314.9 47.9 315.1 47 315.1 46.1V7C315.1 5.1 314.3 3.4 313.1 2.2C312 0.900002 310.3 0.200002 308.4 0.200002ZM330.2 24.4L344.4 9.8C347.6 6 344.9 0.200002 339.9 0.200002H339.6C337.5 0.200002 335.5 1.1 334.1 2.7L320.1 16.8C318.2 19 317.2 21.8 317.2 24.8C317.2 27.8 318.3 30.7 320.3 32.9L337.8 50.4C339.1 51.9 340.9 52.7 342.9 52.7C348.2 52.7 351 46.5 347.6 42.5L330.2 24.4ZM454.5 8.1C449.5 3 443.7 0.300002 435.5 0.300002C427.2 0.300002 416.3 0.300002 416.1 0.300002C413 0.600002 410.9 3.2 410.6 6.3C410.6 6.5 410.6 6.7 410.6 6.9V46.2C410.6 48 411.3 49.6 412.5 50.8C413.7 52 415.3 52.7 417.1 52.7C419.4 52.7 421.4 51.5 422.6 49.7C423.2 48.7 423.6 47.5 423.6 46.2V12.3C428.7 12.2 433.8 12.4 435.6 12.4C439.4 12.4 442.5 13.8 445 16.4C447.1 18.6 448.4 21.4 448.7 24.7C448.8 25.3 448.8 26 448.8 26.6C448.8 27.3 448.8 27.9 448.7 28.6C448.3 31.8 447.1 34.6 445 36.8C442.5 39.5 437.7 40.8 433.9 40.8C433.3 40.8 432.7 40.8 432.1 40.7C428.8 40.3 425.8 42.9 425.8 46.3C425.8 48 426.4 49.5 427.5 50.6C428.6 51.7 430 52.5 431.7 52.6C432.4 52.7 433.2 52.7 433.9 52.7C441.5 52.7 449.6 50.3 454.6 45.2C459.6 40.1 462.2 33.9 462.2 26.7C462.1 19.4 459.6 13.2 454.5 8.1Z" fill="#000"/>
<path d="M228.3 0.500014C224.3 -0.799986 220.3 2.20001 220.3 6.30001C220.3 9.00001 222 11.3 224.5 12.3C226.1 13 227.6 14 228.9 15.4C231.5 18.1 232.8 21.7 232.8 25.9C232.8 30.1 231.5 33.6 228.9 36.3C226.3 39 223.2 40.4 219.2 40.4C215.3 40.4 212.1 39 209.5 36.3C206.9 33.6 205.7 30 205.7 25.9C205.7 21.7 207 18.2 209.5 15.4C210.8 14 212.3 13 213.9 12.3C216.4 11.2 218.2 8.90001 218.2 6.20001C218.2 2.10001 214.2 -0.899986 210.2 0.400014C206.3 1.70001 202.8 3.80001 199.8 6.90001C194.7 12.1 192.1 18.5 192.1 25.9C192.1 33.3 194.7 39.7 199.8 44.9C205 50.1 211.4 52.7 219.2 52.7C227 52.7 233.5 50.1 238.6 44.9C243.7 39.7 246.3 33.3 246.3 25.9C246.3 18.5 243.7 12.1 238.6 6.90001C235.7 3.90001 232.2 1.70001 228.3 0.500014ZM125.8 0.200014C122.1 0.200014 119.1 3.20001 119.1 7.00001V18.9L107.7 18.8C104.4 18.8 101.7 21.5 101.7 24.8C101.7 28.1 104.4 30.8 107.7 30.8L119.1 30.9V46C119.1 47.9 119.8 49.6 121.1 50.8C122.3 52 124 52.8 125.8 52.8C129.5 52.8 132.5 49.8 132.5 46V7.00001C132.5 5.10001 131.8 3.40001 130.6 2.20001C129.3 0.900014 127.6 0.200014 125.8 0.200014ZM92.8 0.100014C89.1 0.100014 86 3.10001 86 6.90001V45.9C86 47.8 86.8 49.5 88 50.7C89.2 51.9 90.9 52.7 92.8 52.7C96.5 52.7 99.5 49.7 99.5 45.9V6.90001C99.5 5.00001 98.7 3.30001 97.5 2.10001C96.4 0.900014 94.7 0.100014 92.8 0.100014ZM53.8 0.200014C46.6 0.200014 40.5 2.70001 35.4 7.70001C32.4 10.6 30.4 14 29.1 17.7C27.9 21.5 30.7 25.5 34.8 25.5C37.4 25.5 39.6 23.8 40.6 21.4C41.3 19.8 42.3 18.4 43.6 17.1C46.2 14.6 49.7 13.3 53.7 13.3C57.8 13.3 61.2 14.6 63.8 17.1C66.4 19.6 67.8 22.7 67.8 26.4C67.8 30.2 66.4 33.3 63.8 35.8C61.2 38.3 57.7 39.5 53.7 39.5C49.6 39.5 46.2 38.3 43.6 35.8C42.3 34.5 41.3 33.1 40.6 31.5C39.6 29.1 37.3 27.4 34.7 27.4C30.7 27.4 27.9 31.3 29.1 35.1C30.3 38.9 32.4 42.3 35.4 45.2C40.4 50.2 46.6 52.7 53.8 52.7C61 52.7 67.1 50.2 72.2 45.2C77.2 40.2 79.8 33.9 79.8 26.4C79.8 18.8 77.3 12.6 72.2 7.60001C67.2 2.70001 61 0.200014 53.8 0.200014ZM17.7 0.200014H6.8C3.1 0.200014 0 3.20001 0 7.00001C0 10.8 3.1 13.8 6.8 13.8H10.9V45.9C10.9 49.7 14 52.7 17.7 52.7C21.5 52.7 24.5 49.6 24.5 45.9V7.00001C24.5 3.20001 21.5 0.200014 17.7 0.200014ZM290.1 4.80001C286.6 1.70001 282 0.200014 276.1 0.200014H259.6C255.8 0.200014 252.7 3.30001 252.7 7.10001V46.1C252.7 48 253.5 49.6 254.7 50.9C255.9 52.1 257.5 52.8 259.3 52.9C263.1 53 266.3 49.6 266.3 45.8V11.8H275.2C279.2 11.8 281.7 13.7 281.7 17C281.7 20.1 279.4 22 275.9 22.2H275.8C275.6 22.2 275.4 22.2 275.2 22.2C271.2 22.4 269.3 23.9 268.7 26C268.5 26.5 268.4 27.1 268.4 27.7C268.4 28.3 268.5 28.8 268.7 29.4C270.2 33.7 276.2 33.4 276.2 33.4C282.1 33.4 286.7 31.9 290.2 28.8C293.7 25.7 295.4 21.7 295.4 16.9C295.3 11.8 293.6 7.90001 290.1 4.80001ZM179 0.200014C175.3 0.200014 172.2 3.20001 172.2 7.00001V46C172.2 47.9 173 49.5 174.2 50.8C175.4 52 177.1 52.8 179 52.8C182.7 52.8 185.8 49.8 185.8 46V7.00001C185.8 5.10001 185 3.40001 183.8 2.20001C182.6 1.00001 180.9 0.200014 179 0.200014ZM167.7 18.7C167.2 18.3 166.7 18.1 166.2 17.9C164 17.3 161.6 17.8 159.8 19.7L159.6 20C159.5 20.1 159.4 20.3 159.3 20.4L152.9 29.3L152.5 29.9V7.00001C152.5 5.10001 151.7 3.40001 150.5 2.20001C149.3 1.00001 147.6 0.200014 145.7 0.200014C142 0.200014 138.9 3.20001 138.9 7.00001V44.9C138.9 45.8 139.1 46.7 139.4 47.6C139.8 48.7 140.4 49.7 141.3 50.5C142.7 51.9 144.7 52.8 146.9 52.8C147.9 52.8 148.9 52.6 149.8 52.2C150.8 51.7 151.6 50.9 152.3 50L160.1 39.4L169 27C170 25.7 170.3 24.1 170.1 22.6C169.8 21.1 169 19.7 167.7 18.7Z" fill="#000"/>
<path d="M6 61.6V63.2C5.1 63.2 4.6 63.4 4.3 63.7C4 64 3.8 64.5 3.8 65.3V69.7C3.8 70.8 3.7 71.5 3.3 72C2.9 72.5 2.3 72.8 1.4 72.9C2.4 73.2 3 73.6 3.3 74C3.6 74.4 3.8 75.1 3.8 76V81.9C3.8 82.7 4 83.2 4.3 83.5C4.6 83.8 5.2 83.9 6 83.9V85.5C2.9 85.8 1.4 84.6 1.4 82.1V75.6C1.4 75.3 1.4 75 1.3 74.8C1.3 74.6 1.2 74.5 1 74.3C1 74.2 0.9 74.1 0.8 74C0.6 74 0.4 73.9 0 73.7V72C0.7 71.8 1.1 71.6 1.2 71.4C1.4 71.2 1.4 70.8 1.4 70V65C1.5 62.5 3 61.4 6 61.6Z" fill="#000"/>
<path d="M25.3 68.8V81.3H8.5V68.8H10.9V79.3H15.8V68.8H18V79.3H22.9V68.8H25.3Z" fill="#000"/>
<path d="M35.2 74.7C35.6 74.8 36 74.9 36.3 75C36.6 75.1 36.9 75.2 37.1 75.4C37.3 75.5 37.6 75.7 37.8 76.1C38 76.4 38.2 76.7 38.4 76.9C38.6 77.1 38.8 77.5 39 78.1C39.2 78.6 39.4 79.1 39.5 79.5C39.6 79.9 39.9 80.5 40.2 81.3H37.6C37.3 80.4 37 79.8 36.9 79.5C36.8 79.1 36.6 78.7 36.3 78.1C36.1 77.6 35.9 77.2 35.7 77C35.5 76.8 35.3 76.6 35 76.3C34.7 76.1 34.5 75.9 34.2 75.8C33.9 75.7 33.6 75.7 33.2 75.7H31.5C31.6 76.1 31.6 76.5 31.6 76.8V81.2H29.1V68.8H31.6V72.4C31.6 72.8 31.6 73.3 31.5 73.8H33.1C34.2 73.8 35 73.4 35.5 72.7C36 72 36.6 70.7 37.3 68.8H39.9C39.6 69.6 39.4 70.1 39.3 70.4C39.2 70.7 39 71.1 38.8 71.6C38.6 72.1 38.4 72.5 38.3 72.7C38.2 72.9 38 73.1 37.8 73.5C37.6 73.8 37.3 74 37.1 74.2C36.9 74.3 36.6 74.4 36.3 74.6C35.9 74.6 35.5 74.7 35.2 74.7Z" fill="#000"/>
<path d="M43.6 70C44.5 69 46 68.5 48.2 68.5C50.4 68.5 51.9 69 52.8 70C53.7 71 54.2 72.7 54.2 75.1C54.2 77.5 53.7 79.2 52.8 80.2C51.9 81.2 50.4 81.7 48.2 81.7C46 81.7 44.5 81.2 43.6 80.2C42.7 79.2 42.2 77.5 42.2 75.2C42.3 72.7 42.7 71 43.6 70ZM50.9 71.5C50.4 70.9 49.5 70.6 48.2 70.6C46.9 70.6 46 70.9 45.5 71.5C45 72.1 44.8 73.3 44.8 75C44.8 76.7 45 77.9 45.5 78.5C46 79.1 46.9 79.4 48.2 79.4C49.5 79.4 50.4 79.1 50.8 78.5C51.3 77.9 51.5 76.7 51.5 75C51.6 73.3 51.4 72.1 50.9 71.5Z" fill="#000"/>
<path d="M67.8 68.8V81.3H65.3V70.7H62.8C62.3 70.7 61.9 70.8 61.7 71C61.5 71.2 61.3 71.6 61.3 72.2C60.9 75.4 60.5 77.5 60.2 78.5C59.6 80.4 58.2 81.4 56.1 81.3L55.8 79.4C56.5 79.2 56.9 79.1 57.2 78.8C57.5 78.6 57.7 78.2 57.9 77.7C58.3 76.7 58.6 74.6 58.9 71.6C59 70.6 59.3 69.8 59.9 69.3C60.4 68.8 61.2 68.6 62.3 68.6H67.8V68.8Z" fill="#000"/>
<path d="M71.8 70.8L71.6 69C73.8 68.6 75.8 68.4 77.6 68.4C79.1 68.4 80.2 68.7 80.9 69.3C81.6 69.9 82 71 82 72.5V81.2H80L79.7 79.2C78.3 80.7 76.6 81.4 74.7 81.4C73.5 81.4 72.6 81.1 71.9 80.5C71.2 79.9 70.9 79 70.9 77.9V76.6C70.9 75.6 71.2 74.8 71.8 74.3C72.4 73.8 73.3 73.5 74.4 73.5H79.4V72.5C79.4 71.7 79.2 71.2 78.9 70.9C78.6 70.6 77.9 70.5 77 70.5C76.2 70.5 74.4 70.6 71.8 70.8ZM73.6 77V77.7C73.6 78.3 73.7 78.8 74 79C74.3 79.3 74.8 79.4 75.4 79.4C76.9 79.4 78.3 78.8 79.6 77.7V75.5H75.1C74.6 75.5 74.2 75.7 73.9 75.9C73.7 76.1 73.6 76.5 73.6 77Z" fill="#000"/>
<path d="M102.4 68.8V81.3H100V70.8H94V81.3H91.6V68.8H102.4Z" fill="#000"/>
<path d="M108.3 68.8L108.5 70.7C109.1 70 109.9 69.5 110.9 69.1C111.8 68.7 112.8 68.5 113.7 68.5C115.2 68.5 116.3 69.1 116.9 70.2C117.6 71.3 117.9 73 117.9 75.2C117.9 77.5 117.5 79.2 116.8 80.2C116 81.2 114.8 81.7 113.2 81.7C111.5 81.7 110 81.3 108.7 80.4C108.8 81.3 108.8 82.1 108.8 82.9V86.4H106.3V68.8H108.3ZM108.7 72.4V78.7C110.4 79.1 111.6 79.4 112.5 79.4C113.6 79.4 114.3 79.1 114.7 78.5C115.1 77.9 115.3 76.8 115.3 75C115.3 73.4 115.1 72.2 114.7 71.5C114.3 70.8 113.7 70.5 112.7 70.5C112.1 70.5 111.5 70.6 110.9 70.9C110.4 71.3 109.6 71.8 108.7 72.4Z" fill="#000"/>
<path d="M122 70C122.9 69 124.4 68.5 126.6 68.5C128.8 68.5 130.3 69 131.2 70C132.1 71 132.6 72.7 132.6 75.1C132.6 77.5 132.1 79.2 131.2 80.2C130.3 81.2 128.8 81.7 126.6 81.7C124.4 81.7 122.9 81.2 122 80.2C121.1 79.2 120.6 77.5 120.6 75.2C120.7 72.7 121.1 71 122 70ZM129.3 71.5C128.8 70.9 127.9 70.6 126.6 70.6C125.3 70.6 124.4 70.9 123.9 71.5C123.4 72.1 123.2 73.3 123.2 75C123.2 76.7 123.4 77.9 123.9 78.5C124.4 79.1 125.3 79.4 126.6 79.4C127.9 79.4 128.8 79.1 129.2 78.5C129.7 77.9 129.9 76.7 129.9 75C130 73.3 129.8 72.1 129.3 71.5Z" fill="#000"/>
<path d="M135.8 81.2V71.4C135.8 69.6 136.7 68.6 138.6 68.6C141.7 68.6 143.9 68.7 145.3 68.8L145.2 70.5H139.7C139.2 70.5 138.8 70.6 138.6 70.8C138.4 71 138.3 71.4 138.3 71.9V81H135.8V81.2Z" fill="#000"/>
<path d="M149.9 68.8L150.1 70.7C150.7 70 151.5 69.5 152.5 69.1C153.4 68.7 154.4 68.5 155.3 68.5C156.8 68.5 157.9 69.1 158.5 70.2C159.2 71.3 159.5 73 159.5 75.2C159.5 77.5 159.1 79.2 158.4 80.2C157.6 81.2 156.4 81.7 154.8 81.7C153.1 81.7 151.6 81.3 150.3 80.4C150.4 81.3 150.4 82.1 150.4 82.9V86.4H147.9V68.8H149.9ZM150.3 72.4V78.7C152 79.1 153.2 79.4 154.1 79.4C155.2 79.4 155.9 79.1 156.3 78.5C156.7 77.9 156.9 76.8 156.9 75C156.9 73.4 156.7 72.2 156.3 71.5C155.9 70.8 155.3 70.5 154.3 70.5C153.7 70.5 153.1 70.6 152.5 70.9C151.9 71.3 151.2 71.8 150.3 72.4Z" fill="#000"/>
<path d="M162.9 70.8L162.7 69C164.9 68.6 166.9 68.4 168.7 68.4C170.2 68.4 171.3 68.7 172 69.3C172.7 69.9 173.1 71 173.1 72.5V81.2H171.1L170.8 79.2C169.4 80.7 167.7 81.4 165.8 81.4C164.6 81.4 163.7 81.1 163 80.5C162.3 79.9 162 79 162 77.9V76.6C162 75.6 162.3 74.8 162.9 74.3C163.5 73.8 164.4 73.5 165.5 73.5H170.5V72.5C170.5 71.7 170.3 71.2 170 70.9C169.7 70.6 169 70.5 168.1 70.5C167.2 70.5 165.5 70.6 162.9 70.8ZM164.6 77V77.7C164.6 78.3 164.7 78.8 165 79C165.3 79.3 165.8 79.4 166.4 79.4C167.9 79.4 169.3 78.8 170.6 77.7V75.5H166.1C165.6 75.5 165.2 75.7 164.9 75.9C164.7 76.1 164.6 76.5 164.6 77Z" fill="#000"/>
<path d="M188.6 68.8H191.1C191.7 68.8 192 69.1 192 69.7L192.5 81.2H190.2L189.7 70.6H189.3L186.4 79C186.2 79.5 185.9 79.8 185.5 79.8H183.6C183.1 79.8 182.8 79.5 182.6 79L179.7 70.6H179.3L179 81.2H176.7L177.2 69.7C177.2 69.1 177.5 68.8 178.1 68.8H180.6C181.1 68.8 181.4 69.1 181.5 69.6L183.8 76.5C184 77 184.1 77.6 184.3 78.3H184.7C184.7 78.2 184.8 77.9 184.9 77.5C185 77.1 185.1 76.8 185.2 76.5L187.5 69.6C187.8 69 188.1 68.8 188.6 68.8Z" fill="#000"/>
<path d="M207.8 68.8H210.3C210.9 68.8 211.2 69.1 211.2 69.7L211.7 81.2H209.4L209 70.6H208.6L205.7 79C205.5 79.5 205.2 79.8 204.8 79.8H202.9C202.4 79.8 202.1 79.5 201.9 79L199 70.6H198.6L198.2 81.2H195.9L196.4 69.7C196.4 69.1 196.7 68.8 197.3 68.8H199.8C200.3 68.8 200.6 69.1 200.7 69.6L203 76.5C203.2 77 203.3 77.6 203.5 78.3H203.9C203.9 78.2 204 77.9 204.1 77.5C204.2 77.1 204.3 76.8 204.4 76.5L206.7 69.6C207 69 207.3 68.8 207.8 68.8Z" fill="#000"/>
<path d="M226.5 81.2H224.3V73.3C224.3 73.1 224.3 72.8 224.3 72.4C224.3 72 224.3 71.7 224.3 71.6H224.2C224 72.1 223.7 72.6 223.3 73.1L217.3 81.2H215.3V68.8H217.5V76.7C217.5 77.2 217.5 77.8 217.4 78.4H217.5C217.8 77.8 218.1 77.3 218.4 76.9L224.4 68.8H226.4V81.2H226.5Z" fill="#000"/>
<path d="M232.4 68.8L232.6 70.7C233.2 70 234 69.5 235 69.1C235.9 68.7 236.9 68.5 237.8 68.5C239.3 68.5 240.4 69.1 241 70.2C241.7 71.3 242 73 242 75.2C242 77.5 241.6 79.2 240.9 80.2C240.1 81.2 238.9 81.7 237.3 81.7C235.6 81.7 234.1 81.3 232.8 80.4C232.9 81.3 232.9 82.1 232.9 82.9V86.4H230.4V68.8H232.4ZM232.9 72.4V78.7C234.6 79.1 235.8 79.4 236.7 79.4C237.8 79.4 238.5 79.1 238.9 78.5C239.3 77.9 239.5 76.8 239.5 75C239.5 73.4 239.3 72.2 238.9 71.5C238.5 70.8 237.9 70.5 236.9 70.5C236.3 70.5 235.7 70.6 235.1 70.9C234.5 71.3 233.7 71.8 232.9 72.4Z" fill="#000"/>
<path d="M246.1 70C247 69 248.5 68.5 250.7 68.5C252.9 68.5 254.4 69 255.3 70C256.2 71 256.7 72.7 256.7 75.1C256.7 77.5 256.2 79.2 255.3 80.2C254.4 81.2 252.9 81.7 250.7 81.7C248.5 81.7 247 81.2 246.1 80.2C245.2 79.2 244.7 77.5 244.7 75.2C244.8 72.7 245.2 71 246.1 70ZM253.4 71.5C252.9 70.9 252 70.6 250.7 70.6C249.4 70.6 248.5 70.9 248 71.5C247.5 72.1 247.3 73.3 247.3 75C247.3 76.7 247.5 77.9 248 78.5C248.5 79.1 249.4 79.4 250.7 79.4C252 79.4 252.9 79.1 253.3 78.5C253.8 77.9 254 76.7 254 75C254.1 73.3 253.9 72.1 253.4 71.5Z" fill="#000"/>
<path d="M267.8 74.8C268.9 75 269.7 75.3 270.2 75.8C270.7 76.3 270.9 77.1 270.9 78.1C270.9 79.4 270.5 80.2 269.8 80.7C269.1 81.2 267.8 81.4 265.9 81.4C263.4 81.4 261.5 81.3 260 81.2V68.8C261.3 68.7 263 68.6 265.2 68.6C267.2 68.6 268.5 68.8 269.3 69.3C270.1 69.8 270.4 70.6 270.4 71.9C270.4 72.8 270.2 73.5 269.8 73.9C269.4 74.5 268.7 74.7 267.8 74.8ZM262.3 73.9H265.4C266.4 73.9 267.1 73.8 267.5 73.5C267.9 73.3 268.1 72.8 268.1 72.1C268.1 71.5 267.9 71 267.4 70.8C267 70.6 266.2 70.5 265 70.5H262.2V73.9H262.3ZM262.3 79.4H265.5C266.6 79.4 267.4 79.3 267.8 79C268.2 78.8 268.4 78.3 268.4 77.5C268.4 76.8 268.2 76.3 267.7 76C267.2 75.7 266.5 75.6 265.3 75.6H262.2V79.4H262.3Z" fill="#000"/>
<path d="M274.3 70.8L274 69C276.2 68.6 278.2 68.4 280 68.4C281.5 68.4 282.6 68.7 283.3 69.3C284 69.9 284.4 71 284.4 72.5V81.2H282.4L282.1 79.2C280.7 80.7 279 81.4 277.1 81.4C275.9 81.4 275 81.1 274.3 80.5C273.6 79.9 273.3 79 273.3 77.9V76.6C273.3 75.6 273.6 74.8 274.2 74.3C274.8 73.8 275.7 73.5 276.8 73.5H281.8V72.5C281.8 71.7 281.6 71.2 281.3 70.9C281 70.6 280.3 70.5 279.4 70.5C278.6 70.5 276.8 70.6 274.3 70.8ZM276 77V77.7C276 78.3 276.1 78.8 276.4 79C276.7 79.3 277.2 79.4 277.8 79.4C279.3 79.4 280.7 78.8 282 77.7V75.5H277.5C277 75.5 276.6 75.7 276.3 75.9C276.1 76.1 276 76.5 276 77Z" fill="#000"/>
<path d="M299.4 68.8V81.3H297V75.6H290.8V81.3H288.4V68.8H290.8V73.7H297V68.8H299.4Z" fill="#000"/>
<path d="M314.3 81.2H312.1V73.3C312.1 73.1 312.1 72.8 312.1 72.4C312.1 72 312.1 71.7 312.1 71.6H312C311.8 72.1 311.5 72.6 311.1 73.1L305.1 81.2H303.1V68.8H305.3V76.7C305.3 77.2 305.3 77.8 305.2 78.4H305.3C305.6 77.8 305.9 77.3 306.2 76.9L312.2 68.8H314.2V81.2H314.3Z" fill="#000"/>
<path d="M320.8 75.9V75.8C319.8 75.6 319.1 75.3 318.7 74.7C318.3 74.1 318 73.3 318 72.3C318 71 318.3 70.1 319 69.5C319.7 68.9 320.9 68.6 322.7 68.6C325.2 68.6 327.1 68.7 328.3 68.8V81.2H325.9V76.7H322.7C321.6 76.7 321 77.1 320.7 77.9L319.8 81.2H317.2L318.3 77.4C318.6 76.6 319.4 76.1 320.8 75.9ZM325.9 74.9V70.7H322.8C321.8 70.7 321.2 70.8 320.9 71.1C320.6 71.4 320.4 71.9 320.4 72.8C320.4 73.6 320.6 74.2 320.9 74.5C321.2 74.8 321.9 75 322.9 75H325.9V74.9Z" fill="#000"/>
<path d="M350.2 79.2V84.9H348.6L348.4 81.2H338.5L338.3 84.9H336.7V79.2H338.2C339.2 77.1 339.8 74.6 340 71.7C340.1 69.7 341.2 68.7 343.3 68.7H348.5V79.2H350.2ZM346.1 70.7H343.7C342.8 70.7 342.3 71.2 342.2 72.2C342 75.1 341.4 77.5 340.4 79.3H346.1V70.7Z" fill="#000"/>
<path d="M363.6 68.8V81.3H361.1V70.7H358.6C358.1 70.7 357.7 70.8 357.5 71C357.3 71.2 357.1 71.6 357.1 72.2C356.7 75.4 356.3 77.5 356 78.5C355.4 80.4 354 81.4 351.9 81.3L351.6 79.4C352.3 79.2 352.7 79.1 353 78.8C353.3 78.6 353.5 78.2 353.7 77.7C354.1 76.7 354.4 74.6 354.7 71.6C354.8 70.6 355.1 69.8 355.7 69.3C356.2 68.8 357 68.6 358.1 68.6H363.6V68.8Z" fill="#000"/>
<path d="M370 75.9V75.8C369 75.6 368.3 75.3 367.9 74.7C367.5 74.1 367.2 73.3 367.2 72.3C367.2 71 367.5 70.1 368.2 69.5C368.9 68.9 370.1 68.6 371.9 68.6C374.4 68.6 376.3 68.7 377.5 68.8V81.2H375.1V76.7H371.9C370.8 76.7 370.2 77.1 369.9 77.9L369 81.2H366.4L367.5 77.4C367.9 76.6 368.7 76.1 370 75.9ZM375.2 74.9V70.7H372C371 70.7 370.4 70.8 370.1 71.1C369.8 71.4 369.6 71.9 369.6 72.8C369.6 73.6 369.8 74.2 370.1 74.5C370.4 74.8 371.1 75 372.1 75H375.2V74.9Z" fill="#000"/>
<path d="M399.5 79.2V84.9H397.9L397.7 81.2H387.8L387.6 84.9H386V79.2H387.5C388.5 77.1 389.1 74.6 389.3 71.7C389.4 69.7 390.5 68.7 392.6 68.7H397.8V79.2H399.5ZM395.3 70.7H392.9C392 70.7 391.5 71.2 391.4 72.2C391.2 75.1 390.6 77.5 389.6 79.3H395.3V70.7Z" fill="#000"/>
<path d="M409.9 76.2H404.3C404.4 77.5 404.8 78.4 405.3 78.8C405.9 79.2 406.8 79.5 408 79.5C409.1 79.5 410.6 79.4 412.4 79.2L412.6 80.8C411.5 81.3 409.8 81.5 407.7 81.5C405.5 81.5 404 81 403.1 80C402.2 79 401.7 77.3 401.7 74.9C401.7 72.5 402.1 70.8 403.1 69.8C404 68.8 405.5 68.3 407.5 68.3C409.4 68.3 410.8 68.6 411.6 69.3C412.5 70 412.9 71 412.9 72.4C413 75 411.9 76.2 409.9 76.2ZM404.3 74.3H409.3C410.1 74.3 410.5 73.7 410.5 72.6C410.5 71.8 410.3 71.3 409.9 71C409.5 70.7 408.7 70.5 407.7 70.5C406.5 70.5 405.6 70.8 405.1 71.3C404.6 71.8 404.3 72.8 404.3 74.3Z" fill="#000"/>
<path d="M426.2 70.8H421.8V81.2H419.3V70.8H414.9V68.8H426.2V70.8V70.8Z" fill="#000"/>
<path d="M436.3 76.2H430.7C430.8 77.5 431.2 78.4 431.7 78.8C432.3 79.2 433.2 79.5 434.4 79.5C435.5 79.5 437 79.4 438.8 79.2L439 80.8C437.9 81.3 436.2 81.5 434.1 81.5C431.9 81.5 430.4 81 429.5 80C428.6 79 428.1 77.3 428.1 74.9C428.1 72.5 428.5 70.8 429.5 69.8C430.4 68.8 431.9 68.3 433.9 68.3C435.8 68.3 437.2 68.6 438 69.3C438.9 70 439.3 71 439.3 72.4C439.3 75 438.3 76.2 436.3 76.2ZM430.6 74.3H435.6C436.4 74.3 436.8 73.7 436.8 72.6C436.8 71.8 436.6 71.3 436.2 71C435.8 70.7 435 70.5 434 70.5C432.8 70.5 431.9 70.8 431.4 71.3C430.9 71.8 430.7 72.8 430.6 74.3Z" fill="#000"/>
<path d="M453.6 81.2H451.4V73.3C451.4 73.1 451.4 72.8 451.4 72.4C451.4 72 451.4 71.7 451.4 71.6H451.3C451.1 72.1 450.8 72.6 450.4 73.1L444.4 81.2H442.4V68.8H444.6V76.7C444.6 77.2 444.6 77.8 444.5 78.4H444.6C444.9 77.8 445.2 77.3 445.5 76.9L451.5 68.8H453.5V81.2H453.6ZM450 63.3H451.9C452 64.3 451.7 65.2 451 65.9C450.3 66.6 449.3 66.9 448.1 66.9C446.8 66.9 445.8 66.6 445.1 65.9C444.4 65.2 444.1 64.4 444.1 63.3H446C446 64.8 446.7 65.5 448.1 65.5C449.3 65.5 450 64.7 450 63.3Z" fill="#000"/>
<path d="M456.1 63.2V61.6C459.2 61.3 460.7 62.5 460.7 65V70C460.7 70.7 460.8 71.2 460.9 71.4C461.1 71.6 461.5 71.8 462.1 72V73.7C461.4 74 461 74.2 460.8 74.4C460.6 74.6 460.5 75 460.5 75.5V82C460.5 84.5 459 85.7 455.9 85.4V83.8C456.8 83.8 457.3 83.7 457.6 83.4C457.9 83.1 458.1 82.6 458.1 81.8V76C458.1 75.1 458.3 74.4 458.6 74C458.9 73.6 459.6 73.2 460.5 72.9C459.6 72.7 458.9 72.4 458.6 72C458.3 71.6 458.1 70.8 458.1 69.7V65.3C458.1 64.5 457.9 64 457.6 63.7C457.5 63.3 456.9 63.2 456.1 63.2Z" fill="#000"/>
</g>

</svg>
